<svg width="72.888916" height="41.000000" viewBox="0 0 72.8889 41" fill="none" xmlns="http://www.w3.org/2000/svg" xmlns:xlink="http://www.w3.org/1999/xlink">
	<desc>
			Created with Pixso.
	</desc>
	<defs/>
	<path id="Vector" d="M61.5 18.22C60.7 18.22 59.9 18.3 59.12 18.47C58.1 8.11 49.34 0 38.72 0C37.46 0 36.44 1.02 36.44 2.27L36.44 38.72C36.44 39.97 37.46 41 38.72 41L61.5 41C67.78 41 72.88 35.89 72.88 29.61C72.88 23.33 67.78 18.22 61.5 18.22ZM29.61 4.55C28.35 4.55 27.33 5.57 27.33 6.83L27.33 38.72C27.33 39.97 28.35 41 29.61 41C30.86 41 31.88 39.97 31.88 38.72L31.88 6.83C31.88 5.57 30.86 4.55 29.61 4.55ZM20.5 13.66C19.24 13.66 18.22 14.68 18.22 15.94L18.22 38.72C18.22 39.97 19.24 41 20.5 41C21.75 41 22.77 39.97 22.77 38.72L22.77 15.94C22.77 14.68 21.75 13.66 20.5 13.66ZM11.38 13.66C10.13 13.66 9.11 14.68 9.11 15.94L9.11 38.72C9.11 39.97 10.13 41 11.38 41C12.64 41 13.66 39.97 13.66 38.72L13.66 15.94C13.66 14.68 12.64 13.66 11.38 13.66ZM2.27 20.5C1.02 20.5 0 21.52 0 22.77L0 36.44C0 37.7 1.02 38.72 2.27 38.72C3.53 38.72 4.55 37.7 4.55 36.44L4.55 22.77C4.55 21.52 3.53 20.5 2.27 20.5Z" fill="#FFFFFF" fill-opacity="1.000000" fill-rule="nonzero"/>
</svg>
