<svg width="78.000000" height="46.101807" viewBox="0 0 78 46.1018" fill="none" xmlns="http://www.w3.org/2000/svg" xmlns:xlink="http://www.w3.org/1999/xlink">
	<desc>
			Created with Pixso.
	</desc>
	<defs/>
	<path id="Vector" d="M62.81 16.13C62.63 16.24 62.47 16.39 62.35 16.57C62.22 16.75 62.13 16.95 62.08 17.16C62.04 17.37 62.03 17.59 62.06 17.8C62.1 18.01 62.18 18.22 62.29 18.4C64.05 21.25 64.98 24.54 64.98 27.9C64.98 31.26 64.05 34.55 62.29 37.39C62.18 37.58 62.1 37.78 62.07 38C62.03 38.21 62.04 38.43 62.09 38.64C62.13 38.85 62.22 39.05 62.35 39.23C62.47 39.4 62.63 39.55 62.81 39.67C62.99 39.78 63.19 39.86 63.4 39.89C63.61 39.93 63.83 39.92 64.04 39.87C64.25 39.82 64.44 39.73 64.62 39.61C64.79 39.48 64.94 39.32 65.05 39.14C67.13 35.77 68.23 31.88 68.23 27.91C68.23 23.95 67.13 20.06 65.05 16.69C64.94 16.5 64.8 16.34 64.62 16.21C64.45 16.08 64.25 15.99 64.05 15.94C63.84 15.88 63.62 15.87 63.41 15.91C63.2 15.94 62.99 16.02 62.81 16.13ZM72.85 10.5C72.74 10.3 72.6 10.12 72.42 9.98C72.24 9.84 72.03 9.74 71.82 9.68C71.6 9.63 71.37 9.62 71.15 9.66C70.92 9.7 70.71 9.78 70.52 9.91C70.33 10.03 70.17 10.2 70.05 10.39C69.93 10.58 69.85 10.8 69.81 11.03C69.78 11.25 69.79 11.49 69.85 11.71C69.91 11.93 70.01 12.13 70.15 12.31C73.16 16.93 74.76 22.34 74.76 27.87C74.76 33.39 73.16 38.8 70.15 43.42C70.01 43.6 69.91 43.8 69.85 44.02C69.79 44.25 69.78 44.48 69.81 44.7C69.85 44.93 69.93 45.15 70.05 45.34C70.17 45.53 70.33 45.7 70.52 45.82C70.71 45.95 70.92 46.03 71.15 46.07C71.37 46.11 71.6 46.1 71.82 46.05C72.03 45.99 72.24 45.89 72.42 45.75C72.6 45.61 72.74 45.43 72.85 45.23C76.21 40.08 78 34.04 78 27.87C78 21.69 76.21 15.65 72.85 10.5ZM52.87 18.93C52.59 19.04 52.36 19.22 52.18 19.46C52 19.7 51.89 19.98 51.86 20.28C51.66 22.23 51.2 24.15 50.49 25.97C50.33 26.37 50.01 26.69 49.62 26.86C49.23 27.04 48.78 27.05 48.38 26.89C48.18 26.81 48 26.7 47.85 26.55C47.7 26.39 47.57 26.21 47.49 26.02C47.4 25.82 47.36 25.6 47.36 25.39C47.35 25.17 47.39 24.96 47.47 24.75C49.22 20.3 49.16 15.32 47.3 10.91C45.43 6.5 41.92 3.01 37.53 1.22L37.33 1.22C33.59 -0.26 29.47 -0.4 25.64 0.81C21.81 2.01 18.49 4.5 16.24 7.87C16.09 8.09 16 8.34 15.97 8.6C15.93 8.87 15.97 9.14 16.06 9.39C16.15 9.64 16.3 9.86 16.5 10.04C16.69 10.21 16.93 10.34 17.19 10.4C19.95 11.11 22.47 12.55 24.5 14.58C24.65 14.74 24.77 14.92 24.85 15.12C24.93 15.32 24.98 15.53 24.98 15.75C24.98 15.97 24.93 16.18 24.85 16.38C24.77 16.59 24.65 16.77 24.5 16.92C24.19 17.22 23.77 17.39 23.34 17.39C22.91 17.39 22.5 17.22 22.19 16.92C20.28 15.01 17.84 13.75 15.2 13.3C14.47 13.16 13.74 13.08 12.99 13.07C9.55 13.07 6.24 14.46 3.8 16.93C1.36 19.39 0 22.74 0 26.24C0 29.73 1.36 33.08 3.8 35.55C6.24 38.02 9.55 39.4 12.99 39.4L47.11 39.4C49.43 39.41 51.7 38.69 53.61 37.35C55.51 36.02 56.97 34.12 57.77 31.91C58.58 29.71 58.7 27.31 58.12 25.04C57.54 22.76 56.28 20.72 54.52 19.19C54.3 19 54.02 18.87 53.73 18.83C53.44 18.78 53.14 18.82 52.87 18.93Z" fill="#FFFFFF" fill-opacity="0.200000" fill-rule="nonzero"/>
</svg>
