<svg width="56.279999" height="67.000000" viewBox="0 0 56.28 67" fill="none" xmlns="http://www.w3.org/2000/svg" xmlns:xlink="http://www.w3.org/1999/xlink">
	<desc>
			Created with Pixso.
	</desc>
	<defs/>
	<path id="Vector" d="M21.44 28.13C21.44 24.44 24.44 21.43 28.14 21.43C31.83 21.43 34.84 24.44 34.84 28.13C34.84 31.83 31.83 34.83 28.14 34.83C24.44 34.83 21.44 31.83 21.44 28.13ZM28.14 37.52C34.67 37.52 40.2 40.58 40.2 44.22C40.2 55.11 36.13 63.57 34.44 65.26C33.34 66.37 31.04 67 28.14 67C25.23 67 22.93 66.37 21.83 65.26C20.14 63.57 16.08 55.11 16.08 44.22C16.08 40.58 21.6 37.52 28.14 37.52Z" fill="#FFFFFF" fill-opacity="0.200000" fill-rule="nonzero"/>
	<path id="Vector" d="M28.14 0C43.65 0 56.28 12.62 56.28 28.13C56.28 37.12 51.94 45.61 44.68 50.87C44.09 51.3 43.24 51.18 42.81 50.57C42.37 49.97 42.51 49.14 43.11 48.7C49.67 43.95 53.6 36.26 53.6 28.13C53.6 14.1 42.17 2.67 28.14 2.67C14.1 2.67 2.67 14.1 2.67 28.13C2.67 36.26 6.6 43.95 13.16 48.7C13.76 49.14 13.9 49.97 13.46 50.57C13.2 50.94 12.79 51.13 12.38 51.13C12.1 51.13 11.83 51.05 11.59 50.87C4.33 45.61 0 37.12 0 28.13C0 12.62 12.62 0 28.14 0Z" fill="#FFFFFF" fill-opacity="0.200000" fill-rule="nonzero"/>
	<path id="Vector" d="M28.14 10.72C37.74 10.72 45.56 18.53 45.56 28.14C45.56 31.94 44.35 35.54 42.07 38.54C41.85 38.82 41.53 39.01 41.18 39.06C40.83 39.11 40.47 39.01 40.19 38.8C39.6 38.35 39.48 37.51 39.93 36.92C41.86 34.38 42.88 31.35 42.88 28.14C42.88 20.01 36.26 13.4 28.14 13.4C20.01 13.4 13.4 20.01 13.4 28.14C13.4 31.35 14.41 34.38 16.34 36.92C16.79 37.51 16.67 38.35 16.08 38.8C15.85 38.97 15.56 39.07 15.27 39.07C14.87 39.07 14.47 38.89 14.2 38.54C11.92 35.54 10.72 31.94 10.72 28.14C10.72 18.53 18.53 10.72 28.14 10.72Z" fill="#FFFFFF" fill-opacity="0.200000" fill-rule="nonzero"/>
</svg>
