<svg width="67.000000" height="67.000000" viewBox="0 0 67 67" fill="none" xmlns="http://www.w3.org/2000/svg" xmlns:xlink="http://www.w3.org/1999/xlink">
	<desc>
			Created with Pixso.
	</desc>
	<defs/>
	<path id="Vector" d="M33.5 66.99C32.47 66.99 31.49 66.59 30.76 65.86C30.04 65.14 29.63 64.15 29.63 63.13L29.63 57.98C29.63 56.95 30.04 55.97 30.76 55.24C31.49 54.52 32.47 54.11 33.5 54.11C34.52 54.11 35.5 54.52 36.23 55.24C36.95 55.97 37.36 56.95 37.36 57.98L37.36 63.13C37.36 64.15 36.95 65.14 36.23 65.86C35.5 66.59 34.52 66.99 33.5 66.99Z" fill="#FFFFFF" fill-opacity="0.200000" fill-rule="nonzero"/>
	<path id="Vector" d="M3.86 39.94C2.84 39.94 1.85 39.53 1.13 38.81C0.4 38.08 0 37.1 0 36.07L0 30.92C0 29.89 0.4 28.91 1.13 28.18C1.85 27.46 2.84 27.05 3.86 27.05C4.89 27.05 5.87 27.46 6.59 28.18C7.32 28.91 7.73 29.89 7.73 30.92L7.73 36.07C7.73 37.1 7.32 38.08 6.59 38.81C5.87 39.53 4.89 39.94 3.86 39.94Z" fill="#FFFFFF" fill-opacity="0.200000" fill-rule="nonzero"/>
	<path id="Vector" d="M63.13 39.94C62.1 39.94 61.12 39.53 60.4 38.81C59.67 38.08 59.26 37.1 59.26 36.07L59.26 30.92C59.26 29.89 59.67 28.91 60.4 28.18C61.12 27.46 62.1 27.05 63.13 27.05C64.15 27.05 65.14 27.46 65.86 28.18C66.59 28.91 66.99 29.89 66.99 30.92L66.99 36.07C66.99 37.1 66.59 38.08 65.86 38.81C65.14 39.53 64.15 39.94 63.13 39.94Z" fill="#FFFFFF" fill-opacity="0.200000" fill-rule="nonzero"/>
	<path id="Vector" d="M33.5 12.88C32.47 12.88 31.49 12.47 30.76 11.75C30.04 11.02 29.63 10.04 29.63 9.01L29.63 3.86C29.63 2.84 30.04 1.85 30.76 1.13C31.49 0.4 32.47 0 33.5 0C34.52 0 35.5 0.4 36.23 1.13C36.95 1.85 37.36 2.84 37.36 3.86L37.36 9.01C37.36 10.04 36.95 11.02 36.23 11.75C35.5 12.47 34.52 12.88 33.5 12.88Z" fill="#FFFFFF" fill-opacity="0.200000" fill-rule="nonzero"/>
	<path id="Vector" d="M18.68 55.4C17.65 55.4 16.67 54.99 15.94 54.27C15.22 53.54 14.81 52.56 14.81 51.53L14.81 46.38C14.81 45.35 15.22 44.37 15.94 43.65C16.67 42.92 17.65 42.51 18.68 42.51C19.7 42.51 20.69 42.92 21.41 43.65C22.14 44.37 22.54 45.35 22.54 46.38L22.54 51.53C22.54 52.56 22.14 53.54 21.41 54.27C20.69 54.99 19.7 55.4 18.68 55.4ZM18.68 36.07C17.65 36.07 16.67 35.66 15.94 34.94C15.22 34.22 14.81 33.23 14.81 32.21L14.81 16.75C14.81 15.72 15.22 14.74 15.94 14.01C16.67 13.29 17.65 12.88 18.68 12.88C19.7 12.88 20.69 13.29 21.41 14.01C22.14 14.74 22.54 15.72 22.54 16.75L22.54 32.21C22.54 33.23 22.14 34.22 21.41 34.94C20.69 35.66 19.7 36.07 18.68 36.07Z" fill="#FFFFFF" fill-opacity="0.200000" fill-rule="nonzero"/>
	<path id="Vector" d="M33.5 48.96C32.47 48.96 31.49 48.55 30.76 47.82C30.04 47.1 29.63 46.12 29.63 45.09L29.63 21.9C29.63 20.87 30.04 19.89 30.76 19.17C31.49 18.44 32.47 18.03 33.5 18.03C34.52 18.03 35.5 18.44 36.23 19.17C36.95 19.89 37.36 20.87 37.36 21.9L37.36 45.09C37.36 46.12 36.95 47.1 36.23 47.82C35.5 48.55 34.52 48.96 33.5 48.96Z" fill="#FFFFFF" fill-opacity="0.200000" fill-rule="nonzero"/>
	<path id="Vector" d="M48.31 25.12C47.29 25.12 46.3 24.71 45.58 23.99C44.85 23.26 44.45 22.28 44.45 21.25L44.45 16.1C44.45 15.08 44.85 14.09 45.58 13.37C46.3 12.64 47.29 12.24 48.31 12.24C49.34 12.24 50.32 12.64 51.05 13.37C51.77 14.09 52.18 15.08 52.18 16.1L52.18 21.25C52.18 22.28 51.77 23.26 51.05 23.99C50.32 24.71 49.34 25.12 48.31 25.12ZM48.31 54.75C47.29 54.75 46.3 54.35 45.58 53.62C44.85 52.9 44.45 51.91 44.45 50.89L44.45 35.43C44.45 34.4 44.85 33.42 45.58 32.69C46.3 31.97 47.29 31.56 48.31 31.56C49.34 31.56 50.32 31.97 51.05 32.69C51.77 33.42 52.18 34.4 52.18 35.43L52.18 50.89C52.18 51.91 51.77 52.9 51.05 53.62C50.32 54.35 49.34 54.75 48.31 54.75Z" fill="#FFFFFF" fill-opacity="0.200000" fill-rule="nonzero"/>
</svg>
