<svg width="67.000732" height="67.000000" viewBox="0 0 67.0007 67" fill="none" xmlns="http://www.w3.org/2000/svg" xmlns:xlink="http://www.w3.org/1999/xlink">
	<desc>
			Created with Pixso.
	</desc>
	<defs/>
	<path id="Vector" d="M46.21 43.37C35.06 38.22 19.45 40.5 18.79 40.6C18.44 40.65 18.11 40.77 17.81 40.95C17.5 41.13 17.24 41.37 17.03 41.66C16.82 41.94 16.67 42.27 16.58 42.61C16.5 42.95 16.48 43.31 16.54 43.66C16.59 44.01 16.71 44.34 16.89 44.64C17.07 44.95 17.31 45.21 17.6 45.42C17.88 45.63 18.21 45.78 18.55 45.87C18.89 45.95 19.25 45.97 19.6 45.91C19.74 45.89 34.25 43.77 43.95 48.25C44.3 48.42 44.69 48.5 45.08 48.5C45.69 48.5 46.29 48.29 46.76 47.91C47.24 47.53 47.57 46.99 47.71 46.39C47.84 45.79 47.76 45.17 47.49 44.62C47.22 44.07 46.76 43.63 46.21 43.37ZM49.34 33.69C36.68 27.83 18.92 30.43 18.17 30.54C17.47 30.65 16.83 31.03 16.41 31.6C15.99 32.18 15.81 32.89 15.92 33.6C16.02 34.3 16.4 34.94 16.98 35.36C17.55 35.79 18.27 35.96 18.97 35.86C19.14 35.83 35.9 33.4 47.09 38.57C47.44 38.73 47.82 38.82 48.21 38.82C48.83 38.82 49.42 38.61 49.9 38.22C50.38 37.84 50.71 37.3 50.84 36.71C50.97 36.11 50.9 35.48 50.62 34.93C50.35 34.38 49.9 33.94 49.34 33.69ZM51.45 23.57C37.46 17.1 17.82 19.97 16.99 20.1C15.52 20.32 14.51 21.69 14.73 23.16C14.95 24.62 16.32 25.64 17.79 25.41C17.98 25.39 36.68 22.67 49.19 28.45C49.84 28.74 50.57 28.76 51.23 28.51C51.89 28.26 52.43 27.76 52.72 27.12C53.02 26.48 53.05 25.75 52.81 25.08C52.57 24.42 52.08 23.87 51.45 23.57Z" fill="#FFFFFF" fill-opacity="0.200000" fill-rule="nonzero"/>
	<path id="Vector" d="M33.5 0C15.02 0 0 15.02 0 33.49C0 51.97 15.02 67 33.5 67C51.97 67 67 51.97 67 33.49C67 15.02 51.97 0 33.5 0ZM33.5 61.62C17.99 61.62 5.37 49 5.37 33.49C5.37 17.99 17.99 5.37 33.5 5.37C49 5.37 61.62 17.99 61.62 33.49C61.62 49 49 61.62 33.5 61.62Z" fill="#FFFFFF" fill-opacity="0.200000" fill-rule="nonzero"/>
</svg>
